<svg width="28" height="28" viewBox="0 0 28 28" fill="none" xmlns="http://www.w3.org/2000/svg">
<rect width="28" height="28" rx="14" fill="url(#paint0_radial_1_4453)"/>
<rect width="28" height="28" rx="14" fill="url(#paint1_radial_1_4453)" fill-opacity="0.2"/>
<path d="M11.084 14.0004C11.084 12.3895 12.3895 11.0833 14.0004 11.0833C15.6112 11.0833 16.9174 12.3895 16.9174 14.0004C16.9174 15.6112 15.6112 16.9174 14.0004 16.9174C12.3895 16.9174 11.084 15.6112 11.084 14.0004V14.0004ZM9.50715 14.0004C9.50715 16.482 11.5188 18.4936 14.0004 18.4936C16.4819 18.4936 18.4935 16.482 18.4935 14.0004C18.4935 11.5188 16.4819 9.50715 14.0004 9.50715C11.5188 9.50715 9.50722 11.5186 9.50722 14.0004H9.50715ZM17.6215 9.32899C17.6214 9.53667 17.6829 9.73971 17.7982 9.91244C17.9135 10.0852 18.0774 10.2198 18.2693 10.2994C18.4611 10.3789 18.6722 10.3998 18.8759 10.3594C19.0796 10.3189 19.2668 10.219 19.4137 10.0722C19.5606 9.92541 19.6607 9.73835 19.7013 9.53468C19.7419 9.33101 19.7212 9.11987 19.6418 8.92797C19.5624 8.73607 19.4279 8.57202 19.2552 8.45657C19.0826 8.34112 18.8796 8.27946 18.6719 8.27937H18.6715C18.3931 8.2795 18.1262 8.39012 17.9293 8.58692C17.7324 8.78372 17.6217 9.05062 17.6215 9.32899V9.32899ZM10.4652 21.123C9.61208 21.0841 9.14839 20.942 8.84023 20.822C8.4317 20.6629 8.14021 20.4735 7.83373 20.1675C7.52726 19.8614 7.33755 19.5702 7.17921 19.1617C7.05908 18.8536 6.91698 18.3898 6.8782 17.5367C6.83577 16.6143 6.8273 16.3373 6.8273 14.0005C6.8273 11.6637 6.83647 11.3874 6.8782 10.4643C6.91705 9.61118 7.0602 9.14825 7.17921 8.83932C7.33825 8.43079 7.52768 8.1393 7.83373 7.83282C8.13979 7.52635 8.431 7.33664 8.84023 7.1783C9.14825 7.05817 9.61208 6.91607 10.4652 6.87729C11.3876 6.83486 11.6646 6.82639 14.0004 6.82639C16.3361 6.82639 16.6134 6.83542 17.5365 6.87743C18.3897 6.91628 18.8526 7.05943 19.1615 7.17844C19.5701 7.33678 19.8615 7.52691 20.168 7.83296C20.4745 8.13902 20.6635 8.43093 20.8225 8.83946C20.9427 9.14748 21.0848 9.61132 21.1236 10.4644C21.166 11.3876 21.1744 11.6639 21.1744 14.0006C21.1744 16.3374 21.166 16.6137 21.1236 17.5368C21.0847 18.3899 20.9419 18.8536 20.8225 19.1618C20.6635 19.5703 20.4741 19.8618 20.168 20.1676C19.862 20.4734 19.5701 20.6631 19.1615 20.8221C18.8535 20.9423 18.3897 21.0844 17.5365 21.1231C16.6142 21.1656 16.3371 21.174 14.0004 21.174C11.6636 21.174 11.3873 21.1656 10.4652 21.1231V21.123ZM10.3928 5.30299C9.46123 5.34541 8.82469 5.49312 8.2688 5.70943C7.69345 5.93281 7.20574 6.23249 6.71873 6.71873C6.23172 7.20497 5.93281 7.69275 5.70943 8.2688C5.49312 8.82504 5.34541 9.46123 5.30299 10.3928C5.25987 11.3258 5.25 11.624 5.25 14.0004C5.25 16.3767 5.25987 16.675 5.30299 17.6079C5.34541 18.5395 5.49312 19.1757 5.70943 19.7319C5.93281 20.3073 6.23179 20.7959 6.71873 21.282C7.20567 21.768 7.69275 22.0673 8.2688 22.2913C8.82574 22.5076 9.46123 22.6553 10.3928 22.6977C11.3262 22.7401 11.624 22.7507 14.0004 22.7507C16.3767 22.7507 16.6749 22.7408 17.6079 22.6977C18.5395 22.6553 19.1757 22.5076 19.7319 22.2913C20.3073 22.0673 20.795 21.7682 21.282 21.282C21.769 20.7957 22.0673 20.3073 22.2913 19.7319C22.5076 19.1757 22.656 18.5395 22.6977 17.6079C22.7401 16.6743 22.75 16.3767 22.75 14.0004C22.75 11.624 22.7401 11.3258 22.6977 10.3928C22.6553 9.46116 22.5076 8.82469 22.2913 8.2688C22.0673 7.69345 21.7682 7.20574 21.282 6.71873C20.7957 6.23172 20.3073 5.93281 19.7326 5.70943C19.1757 5.49312 18.5395 5.34471 17.6086 5.30299C16.6755 5.26036 16.3774 5.25 14.0014 5.25C11.6254 5.25 11.3266 5.25987 10.3931 5.30299" fill="white"/>
<defs>
<radialGradient id="paint0_radial_1_4453" cx="0" cy="0" r="1" gradientUnits="userSpaceOnUse" gradientTransform="translate(1.81213 27.3866) scale(35.5496)">
<stop offset="0.09" stop-color="#FA8F21"/>
<stop offset="0.78" stop-color="#D82D7E"/>
</radialGradient>
<radialGradient id="paint1_radial_1_4453" cx="0" cy="0" r="1" gradientUnits="userSpaceOnUse" gradientTransform="translate(14 27.125) scale(21.875)">
<stop offset="0.713542" stop-color="#8C3AAA" stop-opacity="0"/>
<stop offset="1" stop-color="#8C3AAA"/>
</radialGradient>
</defs>
</svg>
