<svg width="151" height="114" viewBox="0 0 151 114" fill="none" xmlns="http://www.w3.org/2000/svg">
<g filter="url(#filter0_d_1_4491)">
<g clip-path="url(#clip0_1_4491)">
<rect x="8" y="6" width="135" height="98" fill="#E1E7FE"/>
<mask id="mask0_1_4491" style="mask-type:alpha" maskUnits="userSpaceOnUse" x="-4" y="-3" width="159" height="116">
<path d="M139.25 -2.16667H11.75C3.46573 -2.16667 -3.25 4.6585 -3.25 13.0778V96.9222C-3.25 105.341 3.46573 112.167 11.75 112.167H139.25C147.534 112.167 154.25 105.341 154.25 96.9222V13.0778C154.25 4.6585 147.534 -2.16667 139.25 -2.16667Z" fill="white"/>
</mask>
<g mask="url(#mask0_1_4491)">
<path d="M139.25 -2.16667H11.75C3.46573 -2.16667 -3.25 4.6585 -3.25 13.0778V96.9222C-3.25 105.341 3.46573 112.167 11.75 112.167H139.25C147.534 112.167 154.25 105.341 154.25 96.9222V13.0778C154.25 4.6585 147.534 -2.16667 139.25 -2.16667Z" fill="#22438B"/>
<path fill-rule="evenodd" clip-rule="evenodd" d="M19.25 5.45555L4.055 5.65373L4.25 20.7L131.615 104.758L146.892 104.476L146.608 89.521L19.25 5.45555Z" fill="white"/>
<path fill-rule="evenodd" clip-rule="evenodd" d="M11.75 5.45555L4.25 13.0778L139.25 104.544L146.75 96.9222L11.75 5.45555Z" fill="#C7152A"/>
<path fill-rule="evenodd" clip-rule="evenodd" d="M131.75 5.45555H146.75V20.7C146.75 20.7 58.625 77.074 19.385 104.758C18.9125 105.093 4.4 104.781 4.4 104.781L3.2375 90.2909L131.75 5.45555Z" fill="white"/>
<path fill-rule="evenodd" clip-rule="evenodd" d="M139.573 5.24213L146.75 13.0778L11.75 104.544L4.25 96.9222L139.573 5.24213Z" fill="#C7152A"/>
<path fill-rule="evenodd" clip-rule="evenodd" d="M56.75 5.45555H94.25V35.9444H146.75V74.0556H94.25V104.544H56.75V74.0556H4.25V35.9444H56.75V5.45555Z" fill="white"/>
<path fill-rule="evenodd" clip-rule="evenodd" d="M64.25 5.45555H86.75V43.5667H146.75V66.4333H86.75V104.544H64.25V66.4333H4.25V43.5667H64.25V5.45555Z" fill="#C7152A"/>
<path d="M139.25 1.64444H11.75C5.5368 1.64444 0.5 6.76332 0.5 13.0778V96.9222C0.5 103.237 5.5368 108.356 11.75 108.356H139.25C145.463 108.356 150.5 103.237 150.5 96.9222V13.0778C150.5 6.76332 145.463 1.64444 139.25 1.64444Z" stroke="black" stroke-opacity="0.1"/>
</g>
</g>
</g>
<defs>
<filter id="filter0_d_1_4491" x="0" y="0" width="151" height="114" filterUnits="userSpaceOnUse" color-interpolation-filters="sRGB">
<feFlood flood-opacity="0" result="BackgroundImageFix"/>
<feColorMatrix in="SourceAlpha" type="matrix" values="0 0 0 0 0 0 0 0 0 0 0 0 0 0 0 0 0 0 127 0" result="hardAlpha"/>
<feOffset dy="2"/>
<feGaussianBlur stdDeviation="4"/>
<feColorMatrix type="matrix" values="0 0 0 0 0 0 0 0 0 0 0 0 0 0 0 0 0 0 0.06 0"/>
<feBlend mode="normal" in2="BackgroundImageFix" result="effect1_dropShadow_1_4491"/>
<feBlend mode="normal" in="SourceGraphic" in2="effect1_dropShadow_1_4491" result="shape"/>
</filter>
<clipPath id="clip0_1_4491">
<rect x="8" y="6" width="135" height="98" rx="2" fill="white"/>
</clipPath>
</defs>
</svg>
