<svg width="35" height="35" viewBox="0 0 35 35" fill="none" xmlns="http://www.w3.org/2000/svg">
<path d="M1 8C1 6.27609 1.68482 4.62279 2.90381 3.40381C4.12279 2.18482 5.77609 1.5 7.5 1.5H27C28.7239 1.5 30.3772 2.18482 31.5962 3.40381C32.8152 4.62279 33.5 6.27609 33.5 8V27.5C33.5 29.2239 32.8152 30.8772 31.5962 32.0962C30.3772 33.3152 28.7239 34 27 34H7.5C5.77609 34 4.12279 33.3152 2.90381 32.0962C1.68482 30.8772 1 29.2239 1 27.5V8Z" stroke="#404040" stroke-width="1.5" stroke-linecap="round" stroke-linejoin="round"/>
<path d="M12.375 25.0626V12.5176C12.375 12.1553 12.4961 11.8034 12.7189 11.5179C12.9418 11.2323 13.2537 11.0293 13.6051 10.9413L23.3551 8.50382C23.5947 8.44379 23.8449 8.43918 24.0865 8.49034C24.3282 8.54149 24.555 8.64706 24.7497 8.79902C24.9445 8.95099 25.102 9.14534 25.2103 9.36732C25.3187 9.5893 25.375 9.83306 25.375 10.0801V22.6251" stroke="#404040" stroke-width="1.5" stroke-linecap="round" stroke-linejoin="round"/>
<path d="M12.375 16.125L25.375 12.875" stroke="#404040" stroke-width="1.5"/>
<path d="M9.9375 27.5C11.2837 27.5 12.375 26.4087 12.375 25.0625C12.375 23.7163 11.2837 22.625 9.9375 22.625C8.5913 22.625 7.5 23.7163 7.5 25.0625C7.5 26.4087 8.5913 27.5 9.9375 27.5Z" stroke="#404040" stroke-width="1.5"/>
<path d="M22.9375 25.875C24.2837 25.875 25.375 24.7837 25.375 23.4375C25.375 22.0913 24.2837 21 22.9375 21C21.5913 21 20.5 22.0913 20.5 23.4375C20.5 24.7837 21.5913 25.875 22.9375 25.875Z" stroke="#404040" stroke-width="1.5"/>
</svg>
